<svg width="19" height="21" viewBox="0 0 19 21" fill="none" xmlns="http://www.w3.org/2000/svg">
<path d="M2.96995 4.51498V17.029C2.96981 17.3863 3.04011 17.7402 3.1768 18.0704C3.3135 18.4006 3.51392 18.7006 3.76662 18.9533C4.01931 19.206 4.31932 19.4064 4.64951 19.5431C4.97969 19.6798 5.33358 19.7501 5.69095 19.75H13.3089C14.0303 19.75 14.7222 19.4634 15.2323 18.9533C15.7424 18.4432 16.0289 17.7514 16.0289 17.03V4.51398M0.793945 4.51498H18.2059" stroke="#CDCDCD" stroke-width="1.5" stroke-linecap="round" stroke-linejoin="round"/>
<path d="M6.23486 4.515V2.882C6.2346 2.66753 6.27667 2.45511 6.35865 2.25692C6.44064 2.05873 6.56093 1.87867 6.71263 1.72706C6.86434 1.57545 7.04447 1.45527 7.24271 1.37341C7.44094 1.29154 7.65339 1.24961 7.86786 1.25H11.1319C11.3463 1.24961 11.5588 1.29154 11.757 1.37341C11.9553 1.45527 12.1354 1.57545 12.2871 1.72706C12.4388 1.87867 12.5591 2.05873 12.6411 2.25692C12.7231 2.45511 12.7651 2.66753 12.7649 2.882V4.515M6.78086 10.596H12.2189M6.78086 14.949H12.2189" stroke="#CDCDCD" stroke-width="0.9375" stroke-linecap="round" stroke-linejoin="round"/>
</svg>
