<svg xmlns="http://www.w3.org/2000/svg" width="25" height="25" viewBox="0 0 25 25" fill="none">
  <path d="M5 8.33333C5 7.16667 5 6.58333 5.2312 6.1375C5.43497 5.74529 5.76021 5.42644 6.16026 5.22667C6.61501 5 7.21002 5 8.40003 5C9.59004 5 10.185 5 10.6398 5.22667C11.0399 5.42644 11.3651 5.74529 11.5689 6.1375C11.8001 6.58333 11.8001 7.16667 11.8001 8.33333M5 8.33333V16.6667C5 17.8333 5 18.4167 5.2312 18.8625C5.43511 19.2544 5.76034 19.5729 6.16026 19.7725C6.61501 20 7.21002 20 8.40003 20C9.59004 20 10.185 20 10.6398 19.7725C11.0397 19.5729 11.3649 19.2544 11.5689 18.8625C11.8001 18.4167 11.8001 17.8333 11.8001 16.6667V8.33333M5 8.33333H11.8001M8.40003 16.6667H8.40768M18.414 16.4125L18.4216 16.4108M13.5001 9.16667L19.0251 7.5M13.0317 9.39C12.73 8.28167 12.5787 7.7275 12.6832 7.24667C12.7742 6.82385 12.9991 6.44002 13.3258 6.15C13.6973 5.82083 14.2608 5.6725 15.3862 5.375C16.5116 5.07833 17.0752 4.93 17.5631 5.0325C17.9934 5.12248 18.3834 5.34428 18.6766 5.66583C19.0115 6.03083 19.1628 6.585 19.4646 7.69333L21.6185 15.61C21.9202 16.7183 22.0715 17.2725 21.967 17.7533C21.876 18.1762 21.6511 18.56 21.3244 18.85C20.9529 19.1792 20.3894 19.3275 19.264 19.625C18.1386 19.9217 17.5759 20.07 17.0871 19.9675C16.657 19.877 16.2672 19.6553 15.9736 19.3342C15.6387 18.9692 15.4874 18.415 15.1856 17.3067L13.0317 9.39Z" stroke="#5E5E5E" stroke-width="1.5" stroke-linecap="round" stroke-linejoin="round"/>
</svg>