<svg xmlns="http://www.w3.org/2000/svg" width="25" height="25" viewBox="0 0 25 25" fill="none">
  <path fill-rule="evenodd" clip-rule="evenodd" d="M12.0818 8.05301C11.2756 8.05301 10.5024 8.37327 9.93237 8.94333C9.36231 9.51339 9.04205 10.2866 9.04205 11.0928V16.159C9.04205 16.9652 9.36231 17.7384 9.93237 18.3084C10.5024 18.8785 11.2756 19.1988 12.0818 19.1988L14.5825 19.1977L16.3202 21.6599C16.4019 21.7754 16.5069 21.8724 16.6283 21.9448C16.7498 22.0172 16.8851 22.0634 17.0254 22.0804L17.148 22.0885C17.3964 22.0885 17.636 21.9972 17.8215 21.8321C18.007 21.667 18.1254 21.4395 18.1542 21.1928L18.1613 21.0753L18.1623 19.1977L19.1745 19.1988C19.9807 19.1988 20.7539 18.8785 21.324 18.3084C21.894 17.7384 22.2143 16.9652 22.2143 16.159V11.0928C22.2143 10.2866 21.894 9.51339 21.324 8.94333C20.7539 8.37327 19.9807 8.05301 19.1745 8.05301H12.0818Z" stroke="#5E5E5E" stroke-width="1.5" stroke-linecap="round" stroke-linejoin="round"/>
  <path d="M9.04206 16.159L7.01556 18.1855V14.1325H6.09756C5.56411 14.1325 5.05217 13.9222 4.67279 13.5472C4.29341 13.1722 4.0772 12.6627 4.07106 12.1293L4.00013 6.0498C3.99705 5.78173 4.04719 5.5157 4.14765 5.26714C4.24811 5.01857 4.39689 4.79242 4.58538 4.60176C4.77386 4.41111 4.99831 4.25975 5.2457 4.15646C5.4931 4.05316 5.75854 3.99998 6.02663 4H15.1216C15.659 4 16.1745 4.21351 16.5545 4.59355C16.9346 4.97359 17.1481 5.48904 17.1481 6.0265V8.053" stroke="#5E5E5E" stroke-width="1.5" stroke-linecap="round" stroke-linejoin="round"/>
</svg>