<svg width="28" height="28" viewBox="0 0 28 28" fill="none" xmlns="http://www.w3.org/2000/svg">
<rect width="28" height="27.9988" rx="13.9994" fill="white"/>
<path d="M14 11.4988C13.9997 10.7039 13.7289 9.93275 13.232 9.31225C12.7351 8.69176 12.0418 8.25889 11.2661 8.08488C10.4905 7.91088 9.67869 8.0061 8.96436 8.35488C8.25003 8.70366 7.67571 9.28522 7.3359 10.0039C6.99609 10.7225 6.91104 11.5354 7.09474 12.3088C7.27845 13.0822 7.71996 13.7701 8.34663 14.2592C8.9733 14.7483 9.7478 15.0094 10.5427 14.9997C11.3375 14.9901 12.1054 14.7101 12.72 14.2058C12.458 15.3728 12.027 16.3389 11.484 17.0869C10.571 18.3469 9.34 18.9988 8 18.9988C7.86739 18.9988 7.74022 19.0515 7.64645 19.1453C7.55268 19.2391 7.5 19.3662 7.5 19.4988C7.5 19.6315 7.55268 19.7586 7.64645 19.8524C7.74022 19.9462 7.86739 19.9988 8 19.9988C9.698 19.9988 11.217 19.1599 12.294 17.6739C13.366 16.1959 14 14.0848 14 11.4988Z" fill="#A8A5FF"/>
<path d="M21 11.4988C20.9997 10.7039 20.7289 9.93275 20.232 9.31225C19.7351 8.69176 19.0418 8.25889 18.2661 8.08488C17.4905 7.91088 16.6787 8.0061 15.9644 8.35488C15.25 8.70366 14.6757 9.28522 14.3359 10.0039C13.9961 10.7225 13.911 11.5354 14.0947 12.3088C14.2784 13.0822 14.72 13.7701 15.3466 14.2592C15.9733 14.7483 16.7478 15.0094 17.5427 14.9997C18.3375 14.9901 19.1054 14.7101 19.72 14.2058C19.458 15.3728 19.027 16.3389 18.484 17.0869C17.571 18.3469 16.34 18.9988 15 18.9988C14.8674 18.9988 14.7402 19.0515 14.6464 19.1453C14.5527 19.2391 14.5 19.3662 14.5 19.4988C14.5 19.6315 14.5527 19.7586 14.6464 19.8524C14.7402 19.9462 14.8674 19.9988 15 19.9988C16.698 19.9988 18.217 19.1599 19.294 17.6739C20.366 16.1959 21 14.0848 21 11.4988Z" fill="#A8A5FF"/>
</svg>
