<svg xmlns="http://www.w3.org/2000/svg" width="25" height="25" viewBox="0 0 25 25" fill="none">
  <path d="M21.8333 21.8333H13.4167C9.44905 21.8333 7.46524 21.8333 6.2322 20.6003C5 19.3689 5 17.3843 5 13.4167V5" stroke="#5E5E5E" stroke-width="1.5" stroke-linecap="round"/>
  <path d="M19.3084 9.20834L16.684 12.5127C16.2826 13.0194 16.0814 13.2727 15.8508 13.3965C15.6757 13.49 15.4811 13.541 15.2826 13.5452C15.0842 13.5495 14.8875 13.5069 14.7087 13.4209C14.473 13.3073 14.2617 13.0632 13.8375 12.575C13.4133 12.0868 13.2021 11.8428 12.9664 11.7291C12.7876 11.6434 12.591 11.601 12.3927 11.6054C12.1945 11.6098 12 11.6608 11.8251 11.7544C11.5945 11.8773 11.3933 12.1306 10.9919 12.6364L8.3667 15.9417" stroke="#5E5E5E" stroke-width="1.5" stroke-linecap="round"/>
</svg>