<svg width="16" height="16" viewBox="0 0 16 16" fill="none" xmlns="http://www.w3.org/2000/svg">
<path d="M2.69165 6.91335C2.69165 4.36163 2.69165 3.08543 3.48471 2.29306C4.27776 1.50068 5.55328 1.5 8.105 1.5H9.12C11.6717 1.5 12.9479 1.5 13.7403 2.29306C14.5327 3.08611 14.5333 4.36163 14.5333 6.91335V9.62002C14.5333 12.1717 14.5333 13.4479 13.7403 14.2403C12.9472 15.0327 11.6717 15.0334 9.12 15.0334H8.105C5.55328 15.0334 4.27708 15.0334 3.48471 14.2403C2.69233 13.4473 2.69165 12.1717 2.69165 9.62002V6.91335Z" stroke="#5E5E5E" stroke-width="1.5" stroke-linecap="round" stroke-linejoin="round"/>
<path d="M8.61252 9.95835H8.61861M8.61861 8.46427V6.57501M2.69167 4.20667H1M2.69167 8.26668H1M2.69167 12.3267H1M11.9959 8.26668C11.9959 9.164 11.6394 10.0246 11.0049 10.6591C10.3704 11.2936 9.50983 11.65 8.61252 11.65C7.7152 11.65 6.85463 11.2936 6.22013 10.6591C5.58563 10.0246 5.22918 9.164 5.22918 8.26668C5.22918 7.36936 5.58563 6.5088 6.22013 5.8743C6.85463 5.2398 7.7152 4.88334 8.61252 4.88334C9.50983 4.88334 10.3704 5.2398 11.0049 5.8743C11.6394 6.5088 11.9959 7.36936 11.9959 8.26668Z" stroke="#5E5E5E" stroke-width="1.5" stroke-linecap="round" stroke-linejoin="round"/>
</svg>
