<svg xmlns="http://www.w3.org/2000/svg" width="25" height="25" viewBox="0 0 25 25" fill="none">
  <path d="M9.77671 14.2746L11.2285 15.0503L8.70217 19.7788C8.4655 20.2218 8.26393 20.5991 8.14817 20.8846C8.09053 21.0282 8.03153 21.2023 8.01973 21.3799C8.00802 21.5059 8.02616 21.6328 8.07266 21.7504C8.11916 21.8681 8.19272 21.9731 8.28738 22.0569C8.385 22.1374 8.50022 22.1938 8.62368 22.2214C8.74714 22.249 8.87538 22.2471 8.99799 22.2159C9.16379 22.1721 9.32191 22.1031 9.46687 22.0115C9.73131 21.853 10.0721 21.5951 10.4732 21.2931L10.5045 21.2703L16.7381 16.5636L16.7781 16.5346C17.4196 16.0504 17.9557 15.6462 18.3188 15.2776C18.6958 14.8933 18.9957 14.4391 18.9508 13.8525C18.9054 13.267 18.5373 12.8646 18.1052 12.5439C17.6894 12.2359 17.097 11.9194 16.3881 11.5406L14.8928 10.7417L17.4192 6.01319C17.6558 5.57022 17.8574 5.19295 17.9732 4.90743C18.041 4.74983 18.0843 4.58279 18.1016 4.41208C18.1133 4.28615 18.0952 4.15922 18.0487 4.0416C18.0022 3.92398 17.9286 3.81897 17.8339 3.73509C17.7368 3.65375 17.6216 3.59687 17.498 3.56921C17.3743 3.54155 17.2459 3.54391 17.1233 3.5761C16.9575 3.61996 16.7994 3.68892 16.6545 3.78058C16.39 3.93898 16.0492 4.19691 15.6481 4.4989L15.6169 4.52171L9.38323 9.22843L9.34321 9.25745C8.70174 9.7416 8.16564 10.1458 7.80252 10.5144C7.42553 10.8988 7.1246 11.3524 7.17053 11.9395C7.21597 12.525 7.58404 12.9274 8.01613 13.2482C8.43191 13.5561 9.0243 13.8726 9.73326 14.2514L9.77671 14.2746Z" stroke="#5E5E5E" stroke-width="1.5"/>
</svg>