<?xml version="1.0" standalone="no"?>
<!DOCTYPE svg PUBLIC "-//W3C//DTD SVG 20010904//EN"
 "http://www.w3.org/TR/2001/REC-SVG-20010904/DTD/svg10.dtd">
<svg version="1.0" xmlns="http://www.w3.org/2000/svg"
 width="512.000000pt" height="499.000000pt" viewBox="0 0 512.000000 499.000000"
 preserveAspectRatio="xMidYMid meet">

<g transform="translate(0.000000,499.000000) scale(0.100000,-0.100000)"
fill="#000000" stroke="none">
<path d="M1922 3867 c-347 -205 -631 -376 -629 -382 2 -5 26 -23 53 -39 27
-15 218 -128 424 -249 206 -121 452 -266 545 -321 94 -55 186 -109 206 -120
l36 -20 489 289 c269 159 553 327 632 373 126 75 141 86 125 97 -13 9 -781
466 -1218 725 l-30 18 -633 -371z m993 -158 c195 -116 355 -214 355 -218 0 -7
-703 -431 -715 -431 -4 0 -169 97 -367 216 l-360 216 358 214 c198 118 362
214 366 214 5 0 168 -95 363 -211z"/>
<path d="M2382 3606 c-84 -52 -155 -96 -158 -99 -6 -6 310 -187 326 -187 21 0
351 183 343 190 -13 11 -345 190 -352 189 -3 0 -75 -42 -159 -93z"/>
<path d="M866 3222 c-71 -42 -131 -82 -132 -87 -2 -6 162 -107 364 -227 202
-119 529 -313 727 -430 198 -118 444 -264 547 -325 l186 -111 604 362 c331
199 741 444 911 544 169 101 307 186 307 190 -1 8 -255 162 -269 162 -5 0
-355 -199 -777 -441 -687 -395 -771 -441 -794 -432 -14 5 -361 202 -772 436
-411 235 -753 429 -760 432 -7 3 -71 -30 -142 -73z"/>
<path d="M346 2842 c-71 -43 -131 -82 -132 -87 -2 -6 268 -171 599 -367 331
-196 860 -510 1175 -698 l573 -341 747 449 c411 247 932 559 1157 692 226 134
418 249 428 255 16 11 1 22 -125 95 -104 59 -147 79 -158 72 -8 -5 -159 -92
-335 -194 -176 -102 -632 -366 -1013 -587 -381 -220 -697 -401 -703 -401 -10
0 -357 200 -1691 976 -202 118 -373 214 -380 214 -7 -1 -71 -36 -142 -78z"/>
<path d="M120 2284 l1 -159 605 -365 c333 -201 690 -415 792 -476 877 -521
1035 -614 1044 -614 6 0 270 156 587 347 317 191 862 517 1211 724 l635 377 3
161 c1 98 -1 161 -7 161 -5 0 -63 -31 -128 -69 -65 -38 -494 -286 -953 -551
-459 -266 -950 -550 -1092 -631 -141 -82 -259 -149 -262 -149 -3 0 -38 20 -78
44 -40 24 -379 220 -753 436 -374 216 -881 509 -1127 652 -246 142 -454 261
-463 264 -13 5 -15 -13 -15 -152z"/>
</g>
</svg>
