<svg xmlns="http://www.w3.org/2000/svg" width="25" height="25" viewBox="0 0 25 25" fill="none">
  <path d="M13.4583 20.1333C12.1985 20.7216 10.5423 21.0791 8.72916 21.0791C7.7209 21.0791 6.76183 20.9685 5.89166 20.7699C4.39536 20.4265 4 19.5469 4 18.1338V7.94532C4 7.01368 4.98367 6.37429 5.89166 6.58238C6.76183 6.781 7.7209 6.89166 8.72916 6.89166C10.5423 6.89166 12.1985 6.53414 13.4583 5.94583C14.7182 5.35752 16.3743 5 18.1875 5C19.1957 5 20.1548 5.11066 21.025 5.30929C22.5213 5.65262 22.9166 6.53225 22.9166 7.94532V18.1338C22.9166 19.0655 21.933 19.7049 21.025 19.4968C20.1548 19.2981 19.1957 19.1875 18.1875 19.1875C16.3743 19.1875 14.7182 19.545 13.4583 20.1333Z" stroke="#5E5E5E" stroke-width="1.5" stroke-linecap="round" stroke-linejoin="round"/>
  <path d="M7.31042 13.9854V13.9939M19.6062 12.0862V12.0956M15.8229 13.0396C15.8229 13.6667 15.5738 14.2681 15.1303 14.7116C14.6869 15.155 14.0855 15.4041 13.4583 15.4041C12.8312 15.4041 12.2298 15.155 11.7863 14.7116C11.3429 14.2681 11.0938 13.6667 11.0938 13.0396C11.0938 12.4124 11.3429 11.811 11.7863 11.3676C12.2298 10.9241 12.8312 10.675 13.4583 10.675C14.0855 10.675 14.6869 10.9241 15.1303 11.3676C15.5738 11.811 15.8229 12.4124 15.8229 13.0396Z" stroke="#5E5E5E" stroke-width="1.5" stroke-linecap="round" stroke-linejoin="round"/>
</svg>