<svg xmlns="http://www.w3.org/2000/svg" width="25" height="25" viewBox="0 0 25 25" fill="none">
  <path d="M4.16675 22.9167H8.33341M20.8334 22.9167H12.5001M19.1011 8.44896L19.874 7.67812C20.1784 7.37383 20.4199 7.01256 20.5846 6.61495C20.7494 6.21734 20.8342 5.79117 20.8342 5.36078C20.8343 4.93039 20.7495 4.50421 20.5849 4.10656C20.4202 3.70892 20.1789 3.34759 19.8746 3.04323C19.5703 2.73886 19.209 2.49741 18.8114 2.33267C18.4138 2.16792 17.9876 2.0831 17.5572 2.08305C17.1268 2.083 16.7006 2.16773 16.303 2.33238C15.9054 2.49704 15.544 2.73841 15.2397 3.04271L14.4667 3.81562C14.4667 3.81562 14.5636 5.45729 16.0115 6.90521C17.4595 8.35312 19.1011 8.45 19.1011 8.45L15.5522 12M14.4667 3.81458L7.36571 10.9167C6.88446 11.3979 6.64383 11.6375 6.43758 11.9031C6.19326 12.2157 5.98402 12.5542 5.81362 12.9125C5.66883 13.2156 5.56154 13.5385 5.34591 14.1833L4.43446 16.9187L4.21258 17.5875C4.16057 17.7432 4.15297 17.9103 4.19063 18.0701C4.22829 18.2298 4.30972 18.3759 4.42579 18.492C4.54186 18.6081 4.68797 18.6895 4.84774 18.7272C5.0075 18.7648 5.1746 18.7572 5.33029 18.7052L5.998 18.4833M12.0001 15.5521C11.5188 16.0333 11.2792 16.2729 11.0136 16.4802C10.7004 16.7247 10.364 16.9326 10.0042 17.1042C9.70112 17.249 9.37821 17.3562 8.73341 17.5708L5.998 18.4833M5.998 18.4833L4.4355 16.9198" stroke="#5E5E5E" stroke-width="1.5" stroke-linecap="round"/>
</svg>