<svg width="18" height="18" viewBox="0 0 18 18" fill="none" xmlns="http://www.w3.org/2000/svg">
<path d="M10.4799 16.455H7.45322C4.59984 16.455 3.17277 16.455 2.28671 15.5682C1.40066 14.6813 1.3999 13.255 1.3999 10.4016V8.88831C1.3999 6.03493 1.3999 4.60786 2.28671 3.72181C3.17353 2.83575 4.59984 2.83499 7.45322 2.83499H10.4799C13.3333 2.83499 14.7603 2.83499 15.6464 3.72181C16.5324 4.60862 16.5332 6.03493 16.5332 8.88831V10.4016C16.5332 13.255 16.5332 14.6821 15.6464 15.5682C15.1523 16.063 14.4902 16.2817 13.5065 16.3778M5.18323 2.83499V1.7M12.7499 2.83499V1.7M16.1549 6.61832H8.02072M1.3999 6.61832H4.33198" stroke="#5E5E5E" stroke-width="1.5" stroke-linecap="round"/>
<path d="M13.5065 12.6716C13.5065 12.8723 13.4268 13.0648 13.2849 13.2067C13.143 13.3486 12.9505 13.4283 12.7498 13.4283C12.5491 13.4283 12.3567 13.3486 12.2148 13.2067C12.0729 13.0648 11.9932 12.8723 11.9932 12.6716C11.9932 12.471 12.0729 12.2785 12.2148 12.1366C12.3567 11.9947 12.5491 11.915 12.7498 11.915C12.9505 11.915 13.143 11.9947 13.2849 12.1366C13.4268 12.2785 13.5065 12.471 13.5065 12.6716ZM13.5065 9.64499C13.5065 9.84567 13.4268 10.0381 13.2849 10.18C13.143 10.3219 12.9505 10.4017 12.7498 10.4017C12.5491 10.4017 12.3567 10.3219 12.2148 10.18C12.0729 10.0381 11.9932 9.84567 11.9932 9.64499C11.9932 9.44431 12.0729 9.25185 12.2148 9.10994C12.3567 8.96804 12.5491 8.88832 12.7498 8.88832C12.9505 8.88832 13.143 8.96804 13.2849 9.10994C13.4268 9.25185 13.5065 9.44431 13.5065 9.64499ZM9.72317 12.6716C9.72317 12.8723 9.64345 13.0648 9.50155 13.2067C9.35964 13.3486 9.16718 13.4283 8.9665 13.4283C8.76582 13.4283 8.57336 13.3486 8.43146 13.2067C8.28956 13.0648 8.20984 12.8723 8.20984 12.6716C8.20984 12.471 8.28956 12.2785 8.43146 12.1366C8.57336 11.9947 8.76582 11.915 8.9665 11.915C9.16718 11.915 9.35964 11.9947 9.50155 12.1366C9.64345 12.2785 9.72317 12.471 9.72317 12.6716ZM9.72317 9.64499C9.72317 9.84567 9.64345 10.0381 9.50155 10.18C9.35964 10.3219 9.16718 10.4017 8.9665 10.4017C8.76582 10.4017 8.57336 10.3219 8.43146 10.18C8.28956 10.0381 8.20984 9.84567 8.20984 9.64499C8.20984 9.44431 8.28956 9.25185 8.43146 9.10994C8.57336 8.96804 8.76582 8.88832 8.9665 8.88832C9.16718 8.88832 9.35964 8.96804 9.50155 9.10994C9.64345 9.25185 9.72317 9.44431 9.72317 9.64499ZM5.93984 12.6716C5.93984 12.8723 5.86012 13.0648 5.71822 13.2067C5.57632 13.3486 5.38386 13.4283 5.18318 13.4283C4.9825 13.4283 4.79004 13.3486 4.64814 13.2067C4.50623 13.0648 4.42651 12.8723 4.42651 12.6716C4.42651 12.471 4.50623 12.2785 4.64814 12.1366C4.79004 11.9947 4.9825 11.915 5.18318 11.915C5.38386 11.915 5.57632 11.9947 5.71822 12.1366C5.86012 12.2785 5.93984 12.471 5.93984 12.6716ZM5.93984 9.64499C5.93984 9.84567 5.86012 10.0381 5.71822 10.18C5.57632 10.3219 5.38386 10.4017 5.18318 10.4017C4.9825 10.4017 4.79004 10.3219 4.64814 10.18C4.50623 10.0381 4.42651 9.84567 4.42651 9.64499C4.42651 9.44431 4.50623 9.25185 4.64814 9.10994C4.79004 8.96804 4.9825 8.88832 5.18318 8.88832C5.38386 8.88832 5.57632 8.96804 5.71822 9.10994C5.86012 9.25185 5.93984 9.44431 5.93984 9.64499Z" fill="#5E5E5E"/>
</svg>
