<svg xmlns="http://www.w3.org/2000/svg" width="17" height="17" viewBox="0 0 17 17" fill="none">
  <path d="M12.7501 9.20692H9.20841V12.7486C9.20841 12.9364 9.13379 13.1166 9.00095 13.2495C8.86811 13.3823 8.68794 13.4569 8.50008 13.4569C8.31222 13.4569 8.13205 13.3823 7.99921 13.2495C7.86638 13.1166 7.79175 12.9364 7.79175 12.7486V9.20692H4.25008C4.06222 9.20692 3.88205 9.13229 3.74921 8.99945C3.61638 8.86661 3.54175 8.68645 3.54175 8.49858C3.54175 8.31072 3.61638 8.13056 3.74921 7.99772C3.88205 7.86488 4.06222 7.79025 4.25008 7.79025H7.79175V4.24858C7.79175 4.06072 7.86638 3.88055 7.99921 3.74772C8.13205 3.61488 8.31222 3.54025 8.50008 3.54025C8.68794 3.54025 8.86811 3.61488 9.00095 3.74772C9.13379 3.88055 9.20841 4.06072 9.20841 4.24858V7.79025H12.7501C12.9379 7.79025 13.1181 7.86488 13.2509 7.99772C13.3838 8.13056 13.4584 8.31072 13.4584 8.49858C13.4584 8.68645 13.3838 8.86661 13.2509 8.99945C13.1181 9.13229 12.9379 9.20692 12.7501 9.20692Z" fill="#CDCDCD"/>
</svg>