<svg xmlns="http://www.w3.org/2000/svg" width="25" height="25" viewBox="0 0 25 25" fill="none">
  <path d="M19.8218 11.5716H18.625C18.602 11.5716 18.58 11.5625 18.5638 11.5462C18.5476 11.53 18.5385 11.508 18.5385 11.485V8.14291C18.5385 7.69696 18.3613 7.26928 18.046 6.95394C17.7306 6.63861 17.303 6.46146 16.857 6.46146H13.5149C13.492 6.46146 13.4699 6.45234 13.4537 6.43611C13.4375 6.41988 13.4284 6.39787 13.4284 6.37492V5.17808C13.4284 4.00375 12.4981 3.02067 11.3237 3.00033C11.0392 2.99533 10.7566 3.04705 10.4922 3.15245C10.2279 3.25786 9.98725 3.41486 9.78425 3.61427C9.58125 3.81369 9.41999 4.05154 9.30989 4.31394C9.19979 4.57634 9.14305 4.85804 9.14298 5.1426V6.37492C9.14298 6.39787 9.13386 6.41988 9.11763 6.43611C9.10141 6.45234 9.07939 6.46146 9.05644 6.46146H5.71433C5.26008 6.46283 4.82483 6.64388 4.50363 6.96509C4.18243 7.28629 4.00137 7.72154 4 8.17579V11.2211C4 11.2441 4.00912 11.2661 4.02535 11.2823C4.04158 11.2985 4.06359 11.3076 4.08654 11.3076H5.25091C6.52173 11.3076 7.57361 12.4101 7.59135 13.681C7.60952 14.9734 6.57409 16.1538 5.28553 16.1538H4.08654C4.06359 16.1538 4.04158 16.1629 4.02535 16.1792C4.00912 16.1954 4 16.2174 4 16.2404V19.2857C4.00137 19.7399 4.18243 20.1752 4.50363 20.4964C4.82483 20.8176 5.26008 20.9986 5.71433 21H8.75962C8.78257 21 8.80458 20.9909 8.82081 20.9747C8.83704 20.9584 8.84615 20.9364 8.84615 20.9135V20.0078C8.84615 18.6976 9.91707 17.5696 11.226 17.5389C12.5284 17.5086 13.6923 18.4177 13.6923 19.7145V20.9135C13.6923 20.9364 13.7014 20.9584 13.7177 20.9747C13.7339 20.9909 13.7559 21 13.7788 21H16.857C17.303 21 17.7306 20.8228 18.046 20.5075C18.3613 20.1922 18.5385 19.7645 18.5385 19.3185V15.9435C18.5385 15.9206 18.5476 15.8986 18.5638 15.8823C18.58 15.8661 18.602 15.857 18.625 15.857H19.8573C21.0528 15.857 22 14.8761 22 13.6762C22 12.4763 20.9962 11.5716 19.8218 11.5716Z" stroke="#5E5E5E" stroke-width="1.5" stroke-linecap="round" stroke-linejoin="round"/>
</svg>