<svg xmlns="http://www.w3.org/2000/svg" width="30" height="30" viewBox="0 0 30 30" fill="none">
  <path d="M24 24L20.5 20.5M20 13C20 13.9193 19.8189 14.8295 19.4672 15.6788C19.1154 16.5281 18.5998 17.2997 17.9497 17.9497C17.2997 18.5998 16.5281 19.1154 15.6788 19.4672C14.8295 19.8189 13.9193 20 13 20C12.0807 20 11.1705 19.8189 10.3212 19.4672C9.47194 19.1154 8.70026 18.5998 8.05025 17.9497C7.40024 17.2997 6.88463 16.5281 6.53284 15.6788C6.18106 14.8295 6 13.9193 6 13C6 11.1435 6.7375 9.36301 8.05025 8.05025C9.36301 6.7375 11.1435 6 13 6C14.8565 6 16.637 6.7375 17.9497 8.05025C19.2625 9.36301 20 11.1435 20 13Z" stroke="#4A4A4A" stroke-width="1.5" stroke-linecap="round"/>
</svg>