<svg width="18" height="19" viewBox="0 0 18 19" fill="none" xmlns="http://www.w3.org/2000/svg">
<path d="M14.0001 12V17.8334M16.9167 14.9167H11.0834M4.83341 12.8334H8.16674M4.83341 8.66669H11.5001M4.41674 2.41669C3.12008 2.45585 2.34758 2.60002 1.81258 3.13502C1.08008 3.86835 1.08008 5.04752 1.08008 7.40669V12.8284C1.08008 15.1884 1.08008 16.3675 1.81258 17.1009C2.54424 17.8334 3.72341 17.8334 6.08008 17.8334H8.58341M11.9101 2.41669C13.2067 2.45585 13.9801 2.60002 14.5142 3.13502C15.2476 3.86835 15.2476 5.04752 15.2476 7.40669V9.50002" stroke="#5E5E5E" stroke-width="1.5" stroke-linecap="round" stroke-linejoin="round"/>
<path d="M4.41357 2.62502C4.41357 1.82002 5.06691 1.16669 5.87191 1.16669H10.4552C10.842 1.16669 11.2129 1.32033 11.4864 1.59382C11.7599 1.86731 11.9136 2.23825 11.9136 2.62502C11.9136 3.01179 11.7599 3.38273 11.4864 3.65622C11.2129 3.92971 10.842 4.08335 10.4552 4.08335H5.87191C5.48513 4.08335 5.1142 3.92971 4.84071 3.65622C4.56722 3.38273 4.41357 3.01179 4.41357 2.62502Z" stroke="#5E5E5E" stroke-width="1.5" stroke-linecap="round" stroke-linejoin="round"/>
</svg>
