<svg xmlns="http://www.w3.org/2000/svg" width="25" height="25" viewBox="0 0 25 25" fill="none">
  <path d="M7.80199 16.3H11.5914M7.80199 11.55H15.3808M11.1177 22H12.0651M8.7465 22C7.65705 21.9762 6.9238 22 5.9774 21.7862C4.98268 21.525 4.36691 20.9075 4.1547 19.6725C3.94155 18.865 4.00976 15.2778 4.0126 11.8587C4.01449 9.2054 4.03154 6.79905 4.24943 6.30125C4.55732 5.2325 5.26689 4.4725 7.46853 4.44875M16.817 4.44875C17.5748 4.52 19.5548 4.44875 19.9413 6.63375C20.1516 7.82125 20.1071 9.5075 20.1071 11.5263M9.38501 6.325C10.3797 6.34875 13.5742 6.325 14.6636 6.325C15.7521 6.325 16.3272 5.4263 16.3206 4.59125C16.313 3.74005 15.5627 3.076 14.8285 3H9.36228C8.48598 3.0475 7.89388 3.76 7.79915 4.4725C7.70442 5.44625 8.41493 6.2775 9.38501 6.325ZM18.9475 14.7562C17.6449 16.0862 15.1364 18.4613 15.1364 18.6275C14.9346 18.9097 14.7574 19.4825 14.639 20.29C14.4912 21.0386 14.3131 21.6912 14.5215 21.8812C14.73 22.0712 15.5134 21.9117 16.3433 21.7388C17.0064 21.6675 17.6222 21.43 17.9291 21.1925C18.3791 20.7935 21.4324 17.7012 21.7877 17.2975C22.0473 16.9412 22.0719 16.2763 21.8445 15.8725C21.7167 15.5875 20.9114 14.8275 20.6509 14.6138C20.3889 14.4517 20.0821 14.3782 19.7754 14.4038C19.4686 14.4294 19.1791 14.553 18.9475 14.7562Z" stroke="#5E5E5E" stroke-width="1.5" stroke-linecap="round" stroke-linejoin="round"/>
</svg>